<svg width="32" height="32" viewBox="0 0 32 32" fill="none" xmlns="http://www.w3.org/2000/svg">
<g clip-path="url(#clip0_1284_4816)">
<path d="M27.2 0H4.8C2.14903 0 0 2.14903 0 4.8V27.2C0 29.851 2.14903 32 4.8 32H27.2C29.851 32 32 29.851 32 27.2V4.8C32 2.14903 29.851 0 27.2 0Z" fill="#37AEE2"/>
<path d="M12.4375 25.25C11.75 25.25 11.8125 25 11.625 24.375L9.625 17.8125L24.9375 8.8125" fill="#C8DAEA"/>
<path d="M12.4375 25.25C12.875 25.25 13.125 25 13.4375 24.75L16.25 22.0625L12.75 19.9375" fill="#A9C9DD"/>
<path d="M12.7486 19.9378L21.1861 26.1253C22.0611 26.6878 22.8111 26.3753 23.0611 25.2503L26.4986 9.12527C26.8111 7.75027 25.9361 7.12527 24.9986 7.56277L4.93607 15.3128C3.62357 15.8128 3.62357 16.6253 4.68607 16.9378L9.87357 18.5628L21.7486 11.0003C22.3111 10.6878 22.8111 10.8128 22.4361 11.2503" fill="#F6FBFE"/>
</g>
<defs>
<clipPath id="clip0_1284_4816">
<rect width="32" height="32" fill="white"/>
</clipPath>
</defs>
</svg>
