<svg width="32" height="32" viewBox="0 0 32 32" fill="none" xmlns="http://www.w3.org/2000/svg">
<g clip-path="url(#clip0_1284_4810)">
<path d="M28 0H4C1.79086 0 0 1.79086 0 4V28C0 30.2091 1.79086 32 4 32H28C30.2091 32 32 30.2091 32 28V4C32 1.79086 30.2091 0 28 0Z" fill="#7B519D"/>
<path fill-rule="evenodd" clip-rule="evenodd" d="M26.3706 21.591C25.6082 20.9773 24.7935 20.4264 23.9916 19.8637C22.3922 18.7404 20.9293 18.653 19.7359 20.4603C19.0657 21.4749 18.1275 21.5194 17.1465 21.0742C14.4422 19.848 12.3538 17.9586 11.1306 15.2099C10.5895 13.9937 10.5966 12.9034 11.8627 12.0433C12.533 11.5884 13.2083 11.0502 13.1543 10.0562C13.0838 8.76023 9.93709 4.42917 8.69447 3.97205C8.18028 3.78286 7.66822 3.79517 7.14509 3.97099C4.23134 4.95086 3.02447 7.34717 4.18028 10.1845C7.6284 18.6497 13.6965 24.5428 22.0497 28.1397C22.5259 28.3445 23.055 28.4264 23.3228 28.4999C25.2246 28.519 27.4524 26.6867 28.0958 24.8684C28.7152 23.119 27.4061 22.4246 26.3706 21.591ZM17.0047 4.83992C23.1113 5.77899 25.9277 8.68273 26.7053 14.8334C26.7774 15.4015 26.5658 16.2564 27.3763 16.2721C28.2235 16.2883 28.0193 15.446 28.0265 14.8774C28.0981 9.08461 23.0472 3.71449 17.1812 3.51649C16.7387 3.58017 15.8229 3.2113 15.7658 4.20324C15.7277 4.87199 16.4987 4.76211 17.0047 4.83992Z" fill="white"/>
<path fill-rule="evenodd" clip-rule="evenodd" d="M18.1995 6.52632C17.6121 6.45557 16.8366 6.17882 16.6994 6.99382C16.5561 7.84925 17.4203 7.76238 17.9756 7.88669C21.7473 8.72963 23.0605 10.1024 23.6815 13.8436C23.7722 14.3891 23.592 15.238 24.519 15.0973C25.2059 14.9927 24.9578 14.265 25.0152 13.8399C25.0456 10.2481 21.9678 6.97882 18.1995 6.52632Z" fill="white"/>
<path fill-rule="evenodd" clip-rule="evenodd" d="M18.5468 9.46352C18.1547 9.47321 17.7699 9.51565 17.6258 9.93465C17.4093 10.5609 17.8647 10.7102 18.3281 10.7846C19.8753 11.033 20.6895 11.9453 20.8441 13.4882C20.8858 13.907 21.1516 14.2463 21.5561 14.1985C22.1167 14.1316 22.1673 13.6327 22.1502 13.1589C22.1778 11.4255 20.2187 9.42202 18.5468 9.46352Z" fill="white"/>
</g>
<defs>
<clipPath id="clip0_1284_4810">
<rect width="32" height="32" fill="white"/>
</clipPath>
</defs>
</svg>
