<svg width="32" height="32" viewBox="0 0 32 32" fill="none" xmlns="http://www.w3.org/2000/svg">
<g clip-path="url(#clip0_1284_4806)">
<path d="M27.2 0H4.8C2.14903 0 0 2.14903 0 4.8V27.2C0 29.851 2.14903 32 4.8 32H27.2C29.851 32 32 29.851 32 27.2V4.8C32 2.14903 29.851 0 27.2 0Z" fill="#25D366"/>
<path d="M7.68833 24.5627L8.56333 20.5002C7.4387 18.7263 6.99998 16.603 7.32948 14.5287C7.65898 12.4544 8.73406 10.5716 10.353 9.23359C11.972 7.89556 14.0235 7.19424 16.1228 7.26123C18.222 7.32821 20.2247 8.1589 21.755 9.59743C23.2854 11.036 24.2382 12.9835 24.4348 15.0746C24.6314 17.1657 24.0582 19.2566 22.8228 20.9552C21.5873 22.6537 19.7746 23.8431 17.7246 24.3001C15.6746 24.7572 13.5283 24.4505 11.6883 23.4377L7.68833 24.5627Z" fill="#25D366" stroke="white" stroke-width="1.625"/>
<path d="M19.2481 17.0626C19.0606 16.9376 18.8731 16.8751 18.6856 17.1251L17.9356 18.1251C17.7481 18.2501 17.6231 18.3126 17.3731 18.1876C16.4356 17.6876 15.1231 17.1251 13.9981 15.2501C13.9356 15.0001 14.0606 14.8751 14.1856 14.7501L14.7481 13.8751C14.8731 13.7501 14.8106 13.6251 14.7481 13.5001L13.9981 11.6876C13.8106 11.1876 13.6231 11.2501 13.4356 11.2501H12.9356C12.8106 11.2501 12.5606 11.3126 12.3106 11.5626C10.9356 12.9376 11.4981 14.8751 12.4981 16.1251C12.6856 16.3751 13.9356 18.6251 16.6231 19.8126C18.6231 20.6876 19.0606 20.5626 19.6231 20.4376C20.3106 20.3751 20.9981 19.8126 21.3106 19.2501C21.3731 19.0626 21.6856 18.2501 21.4356 18.1251" fill="white"/>
</g>
<defs>
<clipPath id="clip0_1284_4806">
<rect width="32" height="32" fill="white"/>
</clipPath>
</defs>
</svg>
